<?xml version="1.0" encoding="UTF-8"?>
<svg width="64px" height="64px" viewBox="0 0 64 64" version="1.1" xmlns="http://www.w3.org/2000/svg" xmlns:xlink="http://www.w3.org/1999/xlink">
    <!-- Generator: Sketch 43.2 (39069) - http://www.bohemiancoding.com/sketch -->
    <title>chargebee-icon-brand</title>
    <desc>Created with Sketch.</desc>
    <defs></defs>
    <g id="Page-1" stroke="none" stroke-width="1" fill="none" fill-rule="evenodd">
        <g id="chargebee-icon-brand" transform="translate(7.000000, 4.000000)" fill-rule="nonzero" fill="#FF6C36">
            <path d="M28.0001934,52.1818183 C21.5410516,52.1818183 15.4684116,49.6665017 10.9010516,45.0991417 C6.33369163,40.5317817 3.81837528,34.4592437 3.81837528,28 C3.81837528,21.5408582 6.33369163,15.4682182 10.9010516,10.90096 C15.4684116,6.3336 21.5410516,3.81818183 28.0001934,3.81818183 C31.3714952,3.81818183 34.6344626,4.49914183 37.6984771,5.84202183 C40.6574152,7.13877817 43.2910443,8.98820363 45.5263608,11.33888 C46.1076408,11.9500945 46.0833063,12.9167564 45.4720917,13.4980364 C44.8609789,14.0792145 43.8943171,14.0550836 43.3128334,13.4437673 C41.3588408,11.3888727 39.0574443,9.77250909 36.4723826,8.63968 C33.7974152,7.46724363 30.9468117,6.87272728 28.0001934,6.87272728 C16.3505644,6.87272728 6.87292072,16.3503709 6.87292072,28 C6.87292072,39.6496291 16.3505644,49.1272728 28.0001934,49.1272728 C30.9474226,49.1272728 33.7984334,48.5325528 36.4740117,47.3598109 C39.0593789,46.2263709 41.3610808,44.6093963 43.3150734,42.5537891 C43.8963534,41.9424728 44.8629134,41.91824 45.4743317,42.4991128 C46.085648,43.0802909 46.1100843,44.0469528 45.529008,44.6583709 C43.2936917,47.0098617 40.6597571,48.86 37.7004117,50.1572654 C34.6357863,51.5007563 31.372208,52.1818183 28.0001934,52.1818183" id="Fill-1"></path>
            <path d="M28.0001934,47.3454546 C17.333008,47.3454546 8.65473891,38.6671854 8.65473891,28 C8.65473891,17.3329164 17.333008,8.65454546 28.0001934,8.65454546 C30.6973571,8.65454546 33.3076697,9.19927272 35.7587389,10.2734545 C38.1259097,11.3109818 40.2329352,12.7905018 42.021168,14.6710836 C42.408688,15.07856 42.3924989,15.7230691 41.9849208,16.1105891 C41.5774443,16.4980073 40.9329352,16.4818182 40.5454152,16.0743418 C37.2442663,12.6028509 32.7889063,10.6909091 28.0001934,10.6909091 C18.4559607,10.6909091 10.6911025,18.4557673 10.6911025,28 C10.6911025,37.5442328 18.4559607,45.3090909 28.0001934,45.3090909 C30.5776189,45.3090909 33.0568917,44.7566254 35.3690808,43.6669672 C35.8776626,43.4271854 36.4844989,43.64528 36.7241789,44.1539637 C36.9638589,44.6626472 36.7458663,45.26928 36.2370808,45.5090617 C33.651408,46.7276217 30.8800189,47.3454546 28.0001934,47.3454546" id="Fill-3"></path>
            <path d="M47.6356771,39.4021294 C48.3349643,39.8738531 48.5194589,40.8230023 48.0478371,41.5222894 C47.5761134,42.2215768 46.6268626,42.4061731 45.9275752,41.9344494 C45.228288,41.4628277 45.0437934,40.5135768 45.5155171,39.8142894 C45.9871389,39.1150023 46.9363897,38.9304057 47.6356771,39.4021294" id="Fill-5"></path>
            <path d="M28.0001934,56 C20.5211389,56 13.4896771,53.0874909 8.20124072,47.7989528 C2.91260072,42.5105163 0.000193454545,35.4790546 0.000193454545,28 C0.000193454545,20.5209455 2.91260072,13.4895855 8.20124072,8.20104728 C13.4896771,2.91250909 20.5211389,0 28.0001934,0 C31.9041063,0 35.6821717,0.788378183 39.2295171,2.34304 C42.6555971,3.84455272 45.7052552,5.98609454 48.2937789,8.70820363 C48.6811971,9.11568 48.665008,9.76018909 48.2574297,10.1477091 C47.8499534,10.5351273 47.2054443,10.5189382 46.8179243,10.1114618 C44.4170517,7.58657454 41.5889497,5.60040728 38.4121208,4.20814546 C35.1241063,2.76711272 31.6210517,2.03636364 28.0001934,2.03636364 C21.0650516,2.03636364 14.5450225,4.73709091 9.64115346,9.64096 C4.73718254,14.5449309 2.03655709,21.06496 2.03655709,28 C2.03655709,34.9351417 4.73718254,41.4551709 9.64115346,46.35904 C14.5450225,51.2630109 21.0650516,53.9636363 28.0001934,53.9636363 C29.0182734,53.9636363 30.0434808,53.9041746 31.0475097,53.78688 C31.6048626,53.7222254 32.1117134,54.1214546 32.1768771,54.6800291 C32.2421426,55.2385017 31.8422008,55.7442328 31.283728,55.8094983 C30.2017063,55.9358546 29.0968771,56 28.0001934,56" id="Fill-7"></path>
            <path d="M34.1912174,55.2863768 C33.7292683,55.2863768 33.3109992,54.9699257 33.200832,54.5007477 C33.0723374,53.9532712 33.4120029,53.4052857 33.9593774,53.2767912 C37.4374866,52.4601077 40.6581992,50.9564568 43.5321192,48.807584 C43.9824611,48.4708712 44.6205557,48.5629149 44.9572683,49.0133586 C45.2940829,49.4635986 45.2019374,50.1016931 44.7515957,50.4385077 C41.6517411,52.7561949 38.1773992,54.3781586 34.4248903,55.2591912 C34.346592,55.2776203 34.2682937,55.2863768 34.1912174,55.2863768" id="Fill-9"></path>
            <path d="M46.4912306,48.6678997 C46.2202923,48.6678997 45.9501688,48.5604814 45.7496888,48.3475797 C45.3643069,47.9382706 45.3836523,47.2938632 45.7931651,46.9083797 C46.1751869,46.5487577 46.5503869,46.173456 46.9085832,45.7929614 C47.2937614,45.3835506 47.9381688,45.3637977 48.3477832,45.7494851 C48.757296,46.1348669 48.7767432,46.7791723 48.3912597,47.1887869 C48.0052669,47.5988088 47.6006414,48.0034343 47.1889906,48.391056 C46.9923797,48.5761614 46.7414997,48.6678997 46.4912306,48.6678997" id="Fill-11"></path>
            <path d="M38.4481949,44.0783229 C38.1298094,44.0783229 37.8163112,43.9294648 37.6177657,43.6503811 C37.291744,43.1921992 37.3987549,42.5564466 37.8569368,42.2305266 C38.9906823,41.4237192 39.5672786,40.9542357 40.5455477,39.9256683 C40.932864,39.5183957 41.5774749,39.5020029 41.9849512,39.8895229 C42.3924277,40.2770429 42.4086168,40.9214503 42.0210968,41.3290283 C40.9195257,42.487312 40.2105657,43.0550503 39.0376203,43.889552 C38.8585223,44.0170283 38.6523403,44.0783229 38.4481949,44.0783229" id="Fill-13"></path>
            <path d="M48.2932392,8.70774546 C47.0276392,7.37677817 45.6337483,6.16809454 44.133152,5.10888 C42.635712,4.05190546 41.0333992,3.14490909 39.3583883,2.40102546 C37.5585483,1.60175273 35.6755229,0.991658183 33.7476974,0.589069091 C31.8154937,0.185461818 29.8409337,-0.00870545454 27.8672903,0.000356363637 C26.1217192,0.0084 24.3769629,0.175992727 22.6626502,0.505069091 C20.9728756,0.829461817 19.3135447,1.31055273 17.7129629,1.94202909 C16.1194065,2.57065454 14.5849047,3.34803637 13.1347084,4.26002183 C11.6671011,5.18290183 10.2864465,6.24333817 9.01341383,7.42005091 C7.72633017,8.60979637 6.54788654,9.91734546 5.50119563,11.3233527 C4.47140654,12.7064509 3.56980654,14.1847491 2.81350109,15.7345236 C2.06289745,17.2725891 1.45575564,18.8805018 1.001952,20.5307709 C0.544177454,22.1957018 0.242693817,23.9029891 0.0989265454,25.6236146 C-0.0543098183,27.4585817 -0.0298734546,29.3088217 0.174679273,31.1388 C0.386257454,33.0312946 0.791086546,34.9017963 1.38285382,36.7118183 C1.96830836,38.5028 2.73642472,40.2337091 3.67131928,41.8696217 C4.63584291,43.55736 5.78516654,45.15896 7.08640291,46.6177091 C8.29508654,47.9727054 9.63216291,49.2127491 11.0766575,50.3129963 C12.4497775,51.3588728 13.9195229,52.2775783 15.4623738,53.0514983 C16.9973847,53.8214472 18.6041775,54.4477309 20.2552611,54.9199637 C21.9144902,55.3945383 23.6178066,55.7133309 25.3360903,55.8745091 C26.1799592,55.9537237 27.027392,55.9947563 27.8750283,55.9985237 C27.6962357,54.5082109 27.3223592,53.0421309 26.7642937,51.6487491 C26.2230283,50.2973163 25.5093848,49.0157309 24.647392,47.8425817 C23.7891666,46.6745237 22.7843229,45.6145963 21.6639156,44.6950763 C20.5380102,43.7709746 19.2959302,42.9892146 17.9749411,42.3754546 C17.6449484,42.2221163 17.3099665,42.0792654 16.970912,41.9472072 C16.884672,41.9136072 16.7982284,41.88072 16.7114793,41.8485454 C16.6768611,41.8356146 16.632672,41.8278763 16.6017193,41.8082254 C16.5539665,41.7778837 16.5433775,41.7107854 16.5221993,41.6545817 C16.445632,41.4520654 16.3567447,41.2543346 16.2561484,41.0626109 C16.0524102,40.6743783 15.800512,40.3119054 15.508192,39.9851709 C15.223712,39.6672946 14.9314938,39.3582763 14.6590284,39.0295054 C13.598592,37.7492437 12.7234647,36.3169672 12.0716247,34.7876583 C11.4210065,33.2616072 10.9940829,31.6419854 10.8049047,29.9939563 C10.6309993,28.4783928 10.6558429,26.9394109 10.8813702,25.4305672 C11.0873484,24.0526617 11.4614284,22.7006182 11.9933265,21.4129236 C12.5108684,20.1598473 13.1769629,18.9687782 13.9720611,17.8707709 C14.7642065,16.7767345 15.6838284,15.7755564 16.7063884,14.8932 C17.7322065,14.0080945 18.8612684,13.2429309 20.064352,12.6197018 C21.2815884,11.98904 22.5738647,11.5043855 23.9058503,11.1800945 C25.2929192,10.8424655 26.7210211,10.67976 28.1484103,10.6915709 C29.7804537,10.7050109 31.4101557,10.9434691 32.9747957,11.4091855 C34.5129629,11.86696 35.9842357,12.54344 37.333632,13.4119491 C38.0200903,13.8537382 38.6748829,14.3445018 39.2923083,14.8785382 C39.604992,15.1489673 39.9081048,15.4303927 40.2011374,15.7221018 C40.5024174,16.0220582 40.7860829,16.3353527 41.121472,16.59896 C42.4156829,17.6161236 44.1496466,17.9770691 45.7438137,17.5710182 C47.2965411,17.1754545 48.6196683,16.0681818 49.284032,14.6106545 C49.8728466,13.3188873 49.9205992,11.8116727 49.4151737,10.4851855 C49.1636829,9.82550546 48.7796248,9.21928 48.2932392,8.70774546 C45.7063448,5.98736728 50.3275666,10.8470473 48.2932392,8.70774546" id="Fill-15"></path>
            <path d="M34.6183448,28.0000408 C34.6183448,24.3448697 31.655232,21.3818589 28.0001629,21.3818589 C24.344992,21.3818589 21.3819811,24.3448697 21.3819811,28.0000408 C21.3819811,31.6551097 24.344992,34.6182226 28.0001629,34.6182226 C31.655232,34.6182226 34.6183448,31.6551097 34.6183448,28.0000408" id="Fill-17"></path>
        </g>
    </g>
</svg>